<?xml version="1.0" encoding="UTF-8"?>
<svg id="Layer_4" data-name="Layer 4" xmlns="http://www.w3.org/2000/svg" viewBox="0 0 200 200">
  <defs>
    <style>
      .cls-1 {
        fill: #b40f55;
      }
    </style>
  </defs>
  <path class="cls-1" d="M174.96,86.05c.32-.68.79-1.81.97-3.28.12-1.01.1-2.06-.09-3.13-.73-4.01-3.85-7.29-7.82-8.23-2.2-.52-4.3-.29-6.15.43h0c-.47.2-1.16.49-2,.85-12.25,5.3-27.67,11.96-39.91,20.11-19.19,12.77-28.18,19.44-33.5,23.89-.98.82-2.35-.36-1.67-1.44,11.96-18.99,42.29-71.26,55.27-89.44h0c1.08-1.18,1.45-3.07,1.45-5.91,0-5.74-2.74-17.58-8.48-17.58-3.35,0-6.31,1.59-8.21,4.04h0S62.64,91.74,25.1,182.64h0c-.96,1.92-1.37,4.16-.94,6.54.79,4.4,4.44,7.87,8.88,8.43,3.99.5,7.58-1.27,9.71-4.18,5.21-6.69,54.82-69.71,80.25-75.55,0,0-15.97,43.61-14.4,57.22,1.23,6.15,5.86,10.34,10.39,10.39,2.41.02,5.46-1.12,7.64-3.36.9-.93,1.47-1.86,1.82-2.53,26.28-52.72,45.42-91.24,46.52-93.54Z"/>
</svg>